<?xml version="1.0" encoding="UTF-8" standalone="no"?><svg xmlns="http://www.w3.org/2000/svg" xmlns:xlink="http://www.w3.org/1999/xlink" fill="#ffffff" height="156.8" preserveAspectRatio="xMidYMid meet" version="1" viewBox="0.0 -0.0 485.3 156.8" width="485.3" zoomAndPan="magnify"><g><g id="change1_1"><path d="M485.2544,144.8056c-56.3535,12.0147-99.29,9.7881-133.8437,0.0576c-9.8145-0.2968-18.8033-1.288-27.3804-2.8505 c-9.3994,0.4824-18.2178,0.1914-26.2681-0.75c-9.0454,0.9746-17.3081,1.1757-25.0015,0.6601 c-33.8725,5.2627-57.2221-2.4892-74.4252-15.6435c-16.6646-12.7432-28.0313-30.8994-38.6475-47.2071 c-11.8838-18.3515-22.3496-34.5068-36.1274-37.2978c-0.1016-0.0205-0.2559-0.0449-0.356-0.0801 c-2.0044,3.8672-4.0151,7.9961-6.084,12.3154c-10.5078,21.4668-23.0239,47.1563-43.5947,66.2891 c-17.7808,16.542-41.2525,27.7353-73.228,26.8428v-2.1172c31.6801,0.9258,55.0493-9.4785,72.6699-25.9053 c20.416-19.0322,32.8716-44.5264,43.2671-65.8574c1.956-4.1231,3.854-8.0723,5.7461-11.791 c-1.4805-0.2364-2.8086-0.4033-4.1431-0.4951c-2.6147,4.9003-5.2554,10.4785-8.1074,16.3701 c-9.1792,19.3164-20.0948,42.1377-39.4068,58.581c-16.5117,14.0615-38.7744,22.9844-70.0258,20.4444v-2.2022 c31.0136,2.6084,53.1455-5.4795,69.5166-19.4433c19.1132-16.3086,29.9116-38.9551,38.977-58.1084 c2.687-5.6329,5.2593-10.9385,7.7637-15.7198c-1.3858-0.0547-2.7808,0-4.022,0.1348 c-3.5088,5.4795-6.6045,12.2549-10.0205,19.5723c-8.0137,17.1816-17.312,37.3086-35.2017,50.9423 c-15.3169,11.6739-36.5278,18.2774-67.0131,14.1075v-1.8897c30.2856,4.1973,51.3227-1.8203,66.5014-13.4277 c17.6914-13.5254,26.9234-33.4268,34.8247-50.4434c3.1905-6.9062,6.1118-13.3008,9.3535-18.6592 c-1.2973,0.2159-2.5478,0.5332-3.6489,0.9278c-4.6255,5.4238-8.0552,13.1142-11.9126,21.6064 c-6.7094,15.0752-14.5952,32.4678-31.1782,43.3906c-14.1362,9.3106-34.1865,13.6446-63.9399,7.8614v-2.0254 c29.5131,5.8271,49.4838,2.1601,63.4755-7.0518c16.3858-10.79,24.1055-27.9814,30.752-42.8818 c3.4033-7.5449,6.5391-14.4981,10.3857-19.8359c-8.0068,4.1347-11.9467,13.3095-16.4228,23.6181 c-5.6187,13.0176-11.9629,27.7295-27.2861,35.9317c-12.9786,6.9521-31.9927,9.0615-60.9043,1.6718v-1.8838 c28.7993,7.4424,47.5615,5.8389,60.3906-1.0078c15.165-8.0976,21.4014-22.5732,26.9619-35.4004 c4.9863-11.5546,9.334-21.7822,19.1792-25.3994c2.6201-3.0439,5.6738-5.3779,9.3018-6.75 c2.7949-3.1826,5.8647-5.5742,9.5561-6.9443c2.919-3.3086,6.1084-5.7734,9.7051-7.1055c6.5415-7.3789,18.855-9.7998,29.7807-5.708 c36.8648,13.8789,70.2168,58.1807,102.9229,84.0811c14.0986,11.166,29.4834,21.6963,46.751,30.3271 c20.7602-7.706,45.1123-19.2744,74.0566-35.8926c27.0879-15.5517,58.9356-37.2744,96.3506-63.8925v4.2158 c-36.4971,25.5019-67.5977,45.3193-94.293,60.6406c-28.8486,16.5547-53.1474,28.1816-73.9218,36.0039 c3.0976,1.5068,6.1503,2.9473,9.3564,4.3203c19.604-5.0254,42.354-13.3779,69.1309-26.0342 c25.3056-11.9619,55.2695-29.5732,89.7275-51.038v3.8232c-33.5215,20.5918-62.291,36.334-87.2754,48.1768 c-26.5674,12.5927-49.2827,21.0263-68.7544,26.2285c3.1143,1.2715,6.2852,2.4707,9.5596,3.6416 c18.3349-2.3135,39.477-7.3858,63.8735-16.0254c23.3897-8.2822,51.3321-21.3613,82.5967-37.5762v3.2676 c-30.249,15.5117-56.5488,26.9834-79.4951,35.2197c-24.0425,8.627-44.8047,13.8653-63.0718,16.4541 c2.8921,0.9766,5.8882,1.9004,9.0405,2.7539c33.8623,0.9229,77.0186-7.7334,133.5264-29.6259v3.1435 c-52.6738,20.1846-93.2856,28.165-126.0034,28.457c33.105,7.9834,73.8696,7.5459,126.0034-3.6543V144.8056L485.2544,144.8056z M343.8164,142.58c-1.7812-0.5986-3.5151-1.1972-5.2944-1.8339c-2.0786,0.2558-4.1553,0.4755-6.1758,0.6699 C336.0908,141.9121,339.9463,142.3134,343.8164,142.58L343.8164,142.58z M128.2607,26.2959 c0.8384-0.1807,1.7227-0.3018,2.5562-0.3936c0.7842-1.123,1.5708-2.207,2.3525-3.2422 C131.4595,23.5927,129.8403,24.8232,128.2607,26.2959L128.2607,26.2959z M316.1548,140.3818 c-1.562-0.3838-3.0708-0.7646-4.6304-1.166c-1.7832,0.3359-3.5664,0.6328-5.3442,0.9092 C309.4605,140.3037,312.7524,140.3877,316.1548,140.3818L316.1548,140.3818z M307.3926,138.0752 c-2.5713-0.7754-5.0884-1.6026-7.5484-2.4795c-3.3559,0.999-6.5976,1.8838-9.7314,2.6894 c2.5557,0.4502,5.1191,0.8252,7.7397,1.1114C300.9883,139.0595,304.0855,138.622,307.3926,138.0752L307.3926,138.0752z M296.9956,134.5771c-19.5088-7.2949-36.4131-17.5703-51.0058-29.5195c-14.1939-11.6211-26.3809-24.9483-38.3018-37.2383 c-9.9634-10.3164-19.6167-20.1602-29.1885-28.3115c-9.3818-7.9883-18.915-14.3233-28.9824-17.7598 c-5.2246-1.7217-9.7295-1.6982-13.6934-0.2832c-1.1601,1.3076-2.2783,2.7705-3.3999,4.3633 c2.5865-0.0518,5.4585,0.3223,8.6636,1.2129l0,0c8.8701,2.6836,17.1192,8.4297,25.2105,15.9394 c8.2045,7.6133,16.2832,17.0127,24.7387,26.9287c11.626,13.4698,23.9917,27.8916,38.8072,40.0743 c15.1909,12.4902,33.2378,22.7861,56.0971,27.5156C289.5269,136.6572,293.2261,135.6953,296.9956,134.5771L296.9956,134.5771z M126.1235,28.542c-1.1001,1.2539-2.207,2.6562-3.2158,4.1591c1.19-0.0498,2.4273-0.041,3.7632,0.086 c1.0254-1.8174,1.9976-3.5313,3.0679-5.1563C128.4883,27.83,127.2817,28.1513,126.1235,28.542L126.1235,28.542z M121.7373,34.334 c-1.0112,1.6171-2.0288,3.3271-3.0493,5.1542c1.2793,0.1094,2.5581,0.3057,4.0386,0.542c1.0322-1.9785,2.063-3.9082,3.0376-5.75 C124.3755,34.205,123.0332,34.2177,121.7373,34.334L121.7373,34.334z M117.4033,39.3955c0.9634-1.709,1.8736-3.3321,2.8291-4.8653 c-1.248,0.2061-2.4507,0.5137-3.6064,0.9209c-1.042,1.2149-2.0347,2.5147-3.0337,3.9327 C114.7808,39.3261,116.0679,39.3252,117.4033,39.3955L117.4033,39.3955z M121.3027,32.8144 c0.7266-1.0918,1.4532-2.1064,2.1753-3.0928c-1.7021,0.9297-3.3125,2.1045-4.7778,3.5284 C119.5352,33.0449,120.4194,32.8994,121.3027,32.8144L121.3027,32.8144z M137.9722,19.2138 c3.5644-0.7461,7.4848-0.4824,11.9502,0.9873l0,0c10.2265,3.4551,19.8017,9.8477,29.2954,17.8555 c9.7153,8.1973,19.3764,18.0752,29.4394,28.4678c12.1109,12.4531,24.8897,25.6094,39.4527,37.3496 c14.9087,12.0254,31.7519,22.7119,51.8803,29.8184c3.982-1.2198,8.0874-2.6231,12.4107-4.1807 c-16.8648-8.6406-32.4673-18.458-46.3731-29.5342C233.7974,74.3076,201.0332,29.5,164.7105,15.8203 C156.3018,12.6904,143.79,13.6513,137.9722,19.2138L137.9722,19.2138z M302.7441,134.6679 c2.9034,0.9493,5.8633,1.8477,8.9805,2.6602c3.7798-0.7158,7.7256-1.5625,11.7378-2.5547 c-2.9634-1.3262-5.9184-2.7227-8.8227-4.1484C310.4741,132.0927,306.5259,133.4599,302.7441,134.6679L302.7441,134.6679z M315.8677,138.3935c2.7314,0.6358,5.5215,1.2178,8.2661,1.7246c3.3198-0.1679,6.9004-0.4287,10.4448-0.8086 c-2.8345-1.0566-5.6665-2.1679-8.3935-3.3281C322.6831,136.8759,319.1929,137.6845,315.8677,138.3935L315.8677,138.3935z M289.7817,140.1074c-1.3759-0.2393-2.6508-0.4942-3.9746-0.7481c-1.4853,0.3516-3.0185,0.6836-4.5005,1 C284.0571,140.3711,286.8145,140.2744,289.7817,140.1074L289.7817,140.1074z M281.8955,138.4482 c-21.9072-5.249-39.7231-15.04-54.4243-27.4014c-14.3286-12.0449-25.9976-26.7128-37.3911-39.916 c-8.4082-9.8427-16.3858-19.2021-24.4922-26.7578c-7.9873-7.4463-16.1855-13.1279-24.8506-15.789 c-3.5068-0.9795-6.6377-1.3086-9.4399-1.1153c-1.126,1.6924-2.2066,3.5274-3.3462,5.4502 c1.3843,0.1836,2.9175,0.4385,4.4429,0.8164l0,0c7.872,2.0274,15,7.2256,21.9277,14.3311 c6.9458,7.125,13.7768,16.2177,20.9634,25.7929c10.8012,14.3604,22.5239,29.9541,37.4502,42.3379 c15.2998,12.7002,34.4204,22.2412,60.2504,23.9278C275.8276,139.667,278.7832,139.0957,281.8955,138.4482L281.8955,138.4482z M112.0405,39.5302c0.668-1.0273,1.3872-2.0253,2.0542-2.9648c-1.6943,0.9102-3.3003,2.0791-4.7031,3.4141 C110.2241,39.7998,111.1597,39.6386,112.0405,39.5302L112.0405,39.5302z M264.9414,141.1474 c-23.2983-3.0967-41.1274-12.1494-55.4184-24.5713c-13.9888-12.163-24.8428-27.8173-35.1817-41.5722 c-7.0913-9.4932-13.8872-18.4883-20.7226-25.5655c-6.7852-7.0312-13.8521-12.1923-21.5669-14.1796l0,0 c-1.7286-0.4131-3.4156-0.7032-4.9527-0.8819c-1.0298,1.8789-2.1133,3.8487-3.1504,5.8877 c14.1377,2.8887,24.6465,19.209,36.7217,37.7627c10.1148,15.5137,21.3184,32.6494,36.8599,45.1494 C213.4863,136.0088,234.3555,144.2802,264.9414,141.1474L264.9414,141.1474z" fill="inherit"/><path d="M32.7695,146.1884c0.2842-0.0117,0.6162-0.0566,0.9478-0.0615c0.0976-0.1806,0.1011-0.3408,0.1528-0.5244 c0.7573-2.1943,2.1612-3.6367,3.2886-3.2012c0.2822,0.1104,0.5142,0.3194,0.6978,0.6377c0,0,0.0463,0.0108,0.0463,0.0196 c0,0.0048,0-0.0293,0-0.0293c0.5777-6.5977,1.0879-12.0703,1.7188-18.8164c0.0039-0.0401,0.0498-0.0508,0.0498-0.0508 c0.189,0.0029,0.3345-0.0528,0.5259-0.0664c0.0478-0.0049,0.0063-0.0088-0.001,0.0547 c-0.6939,7.3623-1.2676,13.4267-1.9077,20.6552c-0.0552,0.3174-0.0615,0.626-0.0669,0.9043 c0.3291-0.0058,0.7568-0.0605,1.1367-0.0918l-0.0015,0.0547c-0.0078,0.3721-0.0639,0.7451-0.0722,1.1074 c-0.001,0.0254-0.0474,0.0215-0.0484,0.0215c-0.3808,0.083-0.854,0.0987-1.2797,0.1123 c-0.0503,0.1465-0.0538,0.2774-0.1045,0.4619c-0.7583,2.2012-2.2071,3.5743-3.2832,3.1709 c-0.8418-0.3603-1.191-1.6865-1.0645-3.2617c-0.2827-0.0058-0.6157,0.001-0.8535,0.0518c0,0-0.0503-0.0166-0.0459-0.0537 c0.0503-0.3311,0.0644-0.6748,0.1172-1.045C32.7271,146.2109,32.7695,146.1884,32.7695,146.1884L32.7695,146.1884z" fill="inherit"/><path d="M45.2388,137.7929c-1.0786-0.5361-1.354-2.7597-0.585-4.914c0.8613-2.0772,2.3252-3.3487,3.4082-2.835 c0.3281,0.1475,0.5122,0.4121,0.6939,0.7725c0.8442-6.4805,1.604-13.0283,2.459-19.6573 c0.0019-0.0244,0.0009-0.0527,0.0009-0.0527c0.1914-0.0137,0.3858-0.0234,0.5767,0.0059c0,0,0,0,0,0.0263 c-0.2236,6.1807,2.7695,9.7803,0.9892,15.501c-0.1709,0.5488-0.5517,1.5586-0.9741,2.3809 c-0.0337,0.0664-0.0512,0.0664-0.0488,0.0254c-0.0459-0.041-0.0913-0.1241-0.0415-0.2315 c0.2642-0.8242,0.624-1.7803,0.7344-2.3086c0.2221-1.0976,0.3632-1.9961,0.3676-2.748c0.0152-3.2881-1.5683-3.7324-1.8964-5.6748 c-0.5664,4.8594-1.2242,9.6562-1.7872,14.4472c-0.1674,0.9454-0.185,1.5547-0.5424,2.4893 C47.7764,137.1006,46.3184,138.3603,45.2388,137.7929L45.2388,137.7929z" fill="inherit"/><path d="M317.6665,95.9091c-4.4477-3.3173-4.1426-9.581,0.6026-13.8408c4.7065-4.1884,12.0439-5.0146,16.5048-1.7832 c1.2285,0.9014,2.1392,2.0293,2.7032,3.2871c3.7421-7.9541,7.581-16.0517,11.3789-24.1875 c3.8393-8.2304,7.8432-16.6455,11.9633-25.1045c0.0489-0.0957,0.1343-0.082,0.1778-0.0683 c0.8037,0.2939,1.6191,0.5459,2.5083,0.8203c0.0454,0.0137,0.1191,0.0547,0.0278,0.1103 c-2.5127,8.3985-0.8252,16.4004,0.0352,23.8799c0.854,7.458,0.8481,14.4258-5.0796,20.4825 c-1.2334,1.2607-3.5576,3.2587-6.083,4.6904c-0.1909,0.1074-0.5088,0.0869-0.5699-0.1211 c-0.1845-0.1904-0.0678-0.4541,0.0362-0.6416c1.8706-1.7725,4.0151-3.7119,4.9116-4.9746 c1.7998-2.543,3.0112-4.7412,3.5156-6.7989c2.1739-8.8466-5.0537-12.9501-5.2866-18.7675 c-5.7739,12.1562-11.4575,24.1152-17.0059,35.8408c-1.0937,2.3164-1.6777,3.8027-3.9267,5.6826 C329.3071,98.5156,322.0732,99.167,317.6665,95.9091L317.6665,95.9091z" fill="inherit"/><path d="M64.1089,110.5332c1.7656,0.3779,2.6006,2.6377,1.8491,4.9199c-0.7471,2.2519-2.6645,3.7226-4.3281,3.3418 c-0.4771-0.1045-0.8604-0.3262-1.1777-0.6299c-0.0083-0.0098,0-0.0078,0-0.0019c0,0.0058-0.0015,0.0293-0.0015,0.0429 c0.1724,6.5274,0.395,13.0098,0.6606,19.4834c0.001,0.0254-0.0498,0.0401-0.0498,0.0401 c-0.2851,0.0283-0.5254,0.0478-0.7622,0.0586c-0.0469,0.0039-0.0444-0.0137-0.0459-0.0401 c-0.2485-7.0752-0.5-14.1689-0.7051-21.2978c-0.0166-0.962-0.0942-1.5684,0.2271-2.5684 C60.5176,111.6582,62.4395,110.1591,64.1089,110.5332L64.1089,110.5332z" fill="inherit"/><path d="M127.9805,123.5625c-1.9258-0.4434-2.8491-2.7569-2.0103-5.0869c0.8379-2.2745,3.0181-3.7657,4.9077-3.3438 c0.5157,0.1084,0.9317,0.3623,1.3418,0.7188c-0.1928-6.8204-0.292-13.6622-0.4345-20.5567c0-0.0146,0.0517-0.0449,0.0517-0.0449 c0.1436-0.0127,0.2881-0.0264,0.4815-0.041c0.1445-0.0127,0.2426-0.0264,0.3872-0.0401l0,0 c1.834,4.128,5.9765,6.3545,5.0791,11.086c-0.127,0.5566-0.3565,1.4922-0.7056,2.3056c-0.0347,0.0801-0.1499,0.1016-0.1953,0.0694 c-0.0942-0.0313-0.0913-0.1084-0.0845-0.1983c0.1885-0.7929,0.3843-1.6924,0.4126-2.1894 c0.0103-0.9912-0.0415-1.792-0.2422-2.4287c-0.853-2.7383-3.2065-2.6719-4.1767-4.1983c-0.0044,0.959,0.0386,1.9014,0.0801,2.8311 c-0.0074,0.1631-0.0171,0.3281,0.0224,0.4814l0,0c1.7813,4.1143,5.9116,6.3711,5.0181,11.0684 c-0.0806,0.542-0.3174,1.4726-0.7056,2.2695c-0.0459,0.0918-0.102,0.1153-0.1953,0.084c-0.0459-0.0332-0.041-0.124-0.0352-0.2012 c0.1392-0.7744,0.3829-1.6748,0.3619-2.1582c0.0088-0.9922-0.0396-1.8066-0.1944-2.415 c-0.8945-2.7656-3.2431-2.6914-4.2099-4.2276c0.0678,3.0586,0.1367,6.1026,0.205,9.1358c-0.0214,0.376-0.0429,0.749-0.0146,1.1103 c0.0381,1.0069,0.0967,1.6397-0.2925,2.6739C131.9912,122.5273,129.8135,124.0175,127.9805,123.5625L127.9805,123.5625z" fill="inherit"/><path d="M24.6948,148.4492c-1.4521-0.8692-1.9341-3.1641-1.0522-5.0518c0.8823-1.8291,2.7915-2.6328,4.2471-1.792 c0.373,0.208,0.6757,0.5577,0.9287,0.9092c0.0293,0.041,0.0478,0.0244,0.0478,0.0156c0-0.0048,0.0459-0.0097,0.0479-0.0371 c0.5405-6.1328,1.0913-12.2988,1.687-18.4853c0.001-0.0137,0.0019-0.0332,0.0483-0.0264 c0.1929,0.0391,0.4282,0.0928,0.6655,0.1397c0,0,0.0499,0.0146,0.0464,0.039c-0.6547,6.7764-1.2641,13.5137-1.8657,20.2022 c-0.1128,0.9101-0.124,1.4883-0.5181,2.3095C28.0928,148.5078,26.1899,149.2939,24.6948,148.4492L24.6948,148.4492z M24.8052,147.4189c1.1709,0.5967,2.8847-0.1357,3.6684-1.541c0.7818-1.3945,0.5215-2.6514-0.6982-3.2354 c-1.1733-0.5918-2.8897,0.125-3.6255,1.542C23.417,145.6006,23.6353,146.8193,24.8052,147.4189L24.8052,147.4189z" fill="inherit"/><path d="M85.3496,116.2588c-2.0957,0.8193-3.8457-0.9688-3.8227-3.9043c-0.0293-2.876,1.6298-5.8321,3.6391-6.6504 c0.5869-0.2412,1.0689-0.2647,1.5938-0.1504c-2.6548-6.8438-5.2871-13.6475-7.8672-20.4668 c-0.0088-0.0244-0.0088-0.0596,0.0034-0.0703c0.293-0.2266,0.5581-0.4278,0.8521-0.6543c0.0097-0.0108,0.0483,0,0.0473,0.0117 c3.3086,5.7187,10.3472,5.2666,10.9068,12.5332c0.0566,0.7451,0.0854,2.0605-0.1451,3.3105 c-0.0214,0.1123-0.0566,0.2002-0.1533,0.1866c-0.0962,0-0.1894-0.085-0.1855-0.2002c-0.0972-1.0723-0.0894-2.333-0.208-2.9619 c-0.2828-1.2725-0.587-2.2364-1.0328-2.9229c-1.9145-2.9375-4.7788-1.4199-6.415-2.7744 c1.9209,5.0449,3.835,10.0859,5.7871,15.1406c0.3887,1.0039,0.6509,1.6182,0.6436,2.9238 C89.0107,112.5117,87.3491,115.4658,85.3496,116.2588L85.3496,116.2588z" fill="inherit"/><path d="M157.5176,106.0215c-2.9024,0.1953-4.6978-2.5645-3.938-6.0655c0.6597-3.4453,3.5122-6.3896,6.3335-6.6269 c0.729-0.0713,1.395,0.0683,1.9575,0.3506c0.044,0.0205,0.0186,0.0166,0.0484-0.001c0.0288-0.0176,0.0561-0.0469,0.0527-0.0635 c-1.7012-9.1611-3.377-18.3252-5.001-27.5059c-0.0058-0.0302,0.0078-0.0468,0.0542-0.0644 c0.4043-0.1445,0.8008-0.3291,1.2031-0.5049c0,0,0.0406,0.0156,0.0454,0.0469c1.8047,10.043,3.6578,20.0635,5.4415,30.0898 c0.2465,1.3467,0.4287,2.1924,0.1303,3.7451C163.1255,102.873,160.2764,105.8105,157.5176,106.0215L157.5176,106.0215z" fill="inherit"/><path d="M206.4668,34.7763c3.5117,0.3047,5.0781,4.0108,3.4683,8.0899c-1.5943,3.9541-5.5464,6.8271-8.896,6.4756 c-0.9224-0.0879-1.7779-0.4268-2.3741-0.9444c0.1084,11.0889,0.2671,22.127,0.3707,33.0889c0,0.0322-0.0069,0.0596-0.0538,0.0664 c-0.54,0.0576-1.0302,0.1221-1.5185,0.1855c0,0-0.0484-0.0156-0.0449-0.0498c-1.5938-10.0419-11.5635-14.8466-8.6626-24.6757 c0.3061-1.0332,0.9594-2.7549,1.8896-4.2784c0.0772-0.124,0.2119-0.1875,0.3521-0.1162c0.0932,0.0606,0.1308,0.2334,0.1201,0.377 c-0.4551,1.4756-1.0733,3.164-1.1904,4.0683c-0.2437,1.8926-0.2808,3.3838-0.0108,4.6299 c1.1382,5.252,5.8218,5.4512,7.3843,8.4854c-0.0957-8.1172-0.1904-16.2627-0.2388-24.461 c-0.022-1.6152-0.0864-2.663,0.5386-4.4033C199.1357,37.3867,203.0996,34.4804,206.4668,34.7763L206.4668,34.7763z" fill="inherit"/><path d="M384.165,135.8007c-6.435-1.4423-8.9682-7.9169-5.5249-14.3076c3.4639-6.3496,11.4302-10.4433,17.9248-9.1191 c1.7334,0.3603,3.2364,1.0391,4.4034,1.9844c0.0273,0.0224,0.0136,0.0507,0.0508,0.0361c0.038-0.0137,0.1289-0.0889,0.1328-0.126 c0.7548-9.7666,1.5136-19.6845,2.2695-29.7178c0.7637-10.1347,1.4883-20.4531,2.249-30.9101 c0.0039-0.0527,0.0537-0.1182,0.0957-0.1201c1.0957-0.0811,2.1807-0.2022,3.3428-0.3467c0.041-0.0049,0.082,0.083,0.0771,0.1377 c-0.9189,11.4863-1.8427,22.7891-2.6269,33.8584c-0.7725,10.9111-1.667,21.7363-2.4609,32.3574 c-0.2481,2.8389-0.3086,4.6729-1.9385,7.5293C398.564,133.3623,390.5405,137.2119,384.165,135.8007L384.165,135.8007z" fill="inherit"/><path d="M231.4009,56.6806c-3.5762-0.5254-5.1001-4.3857-3.3516-8.5019c1.7442-4.0274,6.0581-6.9004,9.7022-6.4561 c0.9599,0.1406,1.7651,0.4942,2.4067,0.9912c0.0332,0.0254,0.0601,0.0118,0.0835-0.0068 c0.0264-0.0166,0.0059-0.0283,0.0068-0.0566c0.1578-6.876,0.3116-13.8067,0.5122-20.7735 c0.0596-2.0947,0.1202-4.1865,0.1827-6.3095c0.0088-1.0547,0.059-2.1075,0.0708-3.1612c0.0312-1.7959,0.0654-3.5928,0.0991-5.417 c-0.0142-0.3047,0.0137-0.6133,0.042-0.9218c11.04-1.9493,22.3496-3.9737,34.0561-6.0674 c0.0083,0.3515-0.0244,0.6718-0.0117,0.9873c-0.103,1.8906-0.1601,3.7754-0.2187,5.6465 c-0.0244,1.0947-0.0913,2.207-0.1148,3.3027c-0.0903,2.1914-0.1826,4.4014-0.1846,6.5752 c-0.3295,8.4111-0.6103,16.7881-0.8891,25.1055c-0.0537,1.7871,0.0019,2.9267-0.8609,4.8271 c-1.9824,4.2256-6.6562,7.1836-10.5639,6.6338c-3.9116-0.5254-5.4668-4.5225-3.5415-8.8057 c1.8818-4.2031,6.6167-7.2129,10.4663-6.7529c1.0454,0.1113,1.8931,0.4873,2.6084,1.002 c0.0337,0.0244,0.0561,0.0205,0.0835,0.0087c0.0273-0.0117,0.0073-0.0449,0.0083-0.0761 c0.2471-7.1739,0.4931-14.3867,0.7417-21.6377c-10.3726,1.6406-20.356,3.2304-30.1597,4.7715 c-0.2222,8.0742-0.438,16.1054-0.6123,24.1025c-0.0298,1.7207,0.04,2.8203-0.8032,4.6455 C239.3589,54.3974,235.0649,57.1933,231.4009,56.6806L231.4009,56.6806z M272.916,10.2529 c0.064-1.0947,0.0874-2.2022,0.1553-3.2939c-10.46,1.7763-20.4375,3.4785-30.2788,5.1318 c-0.0117,1.0683-0.065,2.125-0.0747,3.1807C252.5483,13.6533,262.5117,11.9922,272.916,10.2529L272.916,10.2529z" fill="inherit"/><path clip-rule="evenodd" d="M3.2651,120.7392c-0.8095-0.7138-0.3706-2.0703,0.4947-3.2168 c1.5468-2.0498,3.9926-2.6621,6.0019-2.0781c3.0103,0.8711,4.25,5.9492,3.3321,11.6689 C11.3276,137.9355,5.7778,145.455,0,149.4131c0.0464,0.166,0.0938,0.3339,0.1406,0.4892 c6.3369-3.0693,15.7325-12.5547,16.563-21.6182c0.6978-7.6044-2.0527-12.8535-6.9331-13.8623 c-4.4028-0.9121-8.2573,2.4854-8.5185,7.6182c-0.2051,3.291,1.2597,6.0195,3.1626,6.2285c1.333,0.1358,2.8603-0.2441,3.166-2.9726 c0.2529-2.2618-0.3057-3.8438-1.7852-4.3399C4.939,120.6689,4.168,121.6259,3.2651,120.7392L3.2651,120.7392z M19.9551,130.9785 c0.9263,0.167,1.5986,1.4297,1.4853,2.791c-0.0669,1.374-0.9345,2.3496-1.8359,2.1787c-0.9468-0.1738-1.5962-1.4199-1.4854-2.7881 C18.231,131.792,19.0293,130.8134,19.9551,130.9785L19.9551,130.9785z M20.7192,120.2021 c0.9541,0.1572,1.6065,1.417,1.4908,2.7959c-0.0679,1.3877-0.9165,2.3838-1.8448,2.2197 c-0.9282-0.164-1.5795-1.4033-1.4902-2.7929C18.9649,121.0351,19.7651,120.041,20.7192,120.2021L20.7192,120.2021z" fill="inherit" fill-rule="evenodd"/><path d="M272.5806,108.2968c-3.7554-2.4296-3.9859-7.4677-0.6382-11.1015c3.3486-3.5674,9.0073-4.5908,12.7768-2.2227 c0.9986,0.6172,1.7227,1.4258,2.2735,2.3086c0.0303,0.0479,0.0693,0.0352,0.0923,0.0352c0.0254-0.001,0.0493-0.0371,0.0556-0.0528 c4.5215-12.997,9.1016-26.165,13.7945-39.5644c0.0171-0.0518,0.0561-0.0733,0.1035-0.0596 c0.6621,0.1856,1.3208,0.3858,1.9873,0.5401c0.0483,0.0127,0.0503,0.0732,0.039,0.1044 c-5.1743,14.6534-10.2167,29.0596-15.2021,43.2305c-0.626,1.8692-0.9458,3.1084-2.5029,4.7031 C281.917,109.7666,276.2412,110.6963,272.5806,108.2968L272.5806,108.2968z" fill="inherit"/><path d="M107.4531,107.7461c-1.832-0.9014-2.3803-3.4746-1.1631-5.6807c1.1675-2.1563,3.5372-3.209,5.3267-2.3369 c0.5186,0.2187,0.8965,0.5654,1.1563,0.9678c0.0078,0.0127,0.0459,0.0156,0.0473,0.0156c0,0-0.0014,0,0.002-0.0313 c0.8935-7.0381,1.7519-14.1318,2.6567-21.2509c0.0034-0.0313,0.0034-0.0547,0.0508-0.0479 c0.2905,0.043,0.5791,0.0859,0.9165,0.1211c0,0,0.0024,0.0156-0.001,0.0449c-0.9917,7.7959-1.9814,15.5469-2.9116,23.2256 c-0.1514,1.0342-0.187,1.7119-0.7168,2.669C111.646,107.6045,109.2842,108.6064,107.4531,107.7461L107.4531,107.7461z M107.6558,106.5576c1.417,0.5986,3.6279-0.3399,4.6274-2c0.9517-1.6367,0.6401-3.0518-0.7768-3.6348 c-1.4644-0.5996-3.6333,0.333-4.6338,2.0186C105.8755,104.5771,106.1978,105.9453,107.6558,106.5576L107.6558,106.5576z" fill="inherit"/><path clip-rule="evenodd" d="M447.9429,132.1328c3.957-0.0127,8.2441,3.2929,8.6611,7.2607 c0.4151,3.9668-2.706,7.0947-7.0381,7.0449c-0.0019,1.3868,3.8096,3.002,7.0567,2.9893 c10.0966-0.0391,12.3476-7.7607,9.7382-15.4141c-1.4628-4.3867-2.9267-8.7617-4.3945-13.1386 c-2.2568,0.5722-4.9189,0.8271-7.4326,0.8437c-14.5371,0.0938-26.8135-10.5801-29.0928-26.1748 c-1.0888-7.4834,3.2744-16.0293,6.7266-20.7041c1.2764-1.7353,9.001-10.54,10.4072-12.1045 c-2.7256-6.084-4.6611-16.1797-3.9092-25.2705c0.6504-7.8516,5-15.0508,8.9903-15.5488c1.5703-0.1963,4.8564,3.3262,7.2148,8.042 c2.1768,4.3535,3.417,9.9619,3.6387,13.0322c0.6045,12.9014-2.5313,21.6318-10.2363,29.5742 c1.4248,4.1787,2.8496,8.3604,4.2724,12.5117c1.042-0.2148,2.0938-0.374,3.3389-0.4062 c10.3125-0.2881,18.6055,7.792,19.6514,17.8467c1.0068,9.6953-4.1006,15.2431-11.1446,17.6289 c1.4229,4.082,2.6807,8.1318,4.0899,12.1572c4.0195,11.4863-0.5391,19.5547-12.0782,19.6514 c-7.7714-0.0645-16.7255-5.2334-15.331-14.2891c-0.0069-0.0596-0.0264-0.208-0.0352-0.2959c0,0,0,0-0.0049-0.0283l0,0 C441.7437,134.3759,443.9898,132.1416,447.9429,132.1328L447.9429,132.1328z M461.3882,119.1748 c-2.8789-8.4824-5.7471-16.8594-8.4326-25.2871c-4.6455,1.456-7.6416,5.4082-7.2451,9.1748 c0.4853,4.6591,3.1914,8.0429,7.082,9.2168c1.1387,0.3427,1.0615,1.3349-0.0313,1.1816 c-6.0234-0.8281-11.3779-6.3437-11.956-12.3623c-0.6055-6.3135,3.2295-12.708,9.5156-15.2705 c-1.373-3.7676-2.5781-7.6328-3.7783-11.4453c-7.7744,7.623-16.1797,15.1767-15.1426,27.4101 c0.8975,10.6358,11.9805,18.3526,22.75,18.3047C456.8374,120.0859,459.1294,119.7343,461.3882,119.1748L461.3882,119.1748z M455.4097,93.5088c2.8388,8.1943,5.5146,16.4599,8.5547,24.7441c4.3593-2.3613,7.1084-6.6738,6.3466-13.2783 c-0.6728-5.8057-7.7802-11.6885-14.1904-11.4893C455.9419,93.4912,455.5894,93.5146,455.4097,93.5088L455.4097,93.5088z M444.8276,60.9052c-3.6416-7.7216-2.7529-27.3007,5.5098-27.705c6.3301-0.3086,4.4473,9.75,3.5606,12.5146 C452.481,51.2422,447.3901,58.6347,444.8276,60.9052L444.8276,60.9052z" fill="inherit" fill-rule="evenodd"/></g></g></svg>