<?xml version="1.0" encoding="UTF-8" standalone="no"?><svg xmlns="http://www.w3.org/2000/svg" xmlns:xlink="http://www.w3.org/1999/xlink" fill="#ffffff" height="338.2" preserveAspectRatio="xMidYMid meet" version="1" viewBox="0.0 -0.0 453.1 338.2" width="453.1" zoomAndPan="magnify"><g><g id="change1_29"><path d="M0,175.3176c6.6851-4.2959,12.7383-7.9961,16.7061-10.21c0.8813-0.4922,1.7939-0.998,2.7344-1.5136 c25.3193-13.8907,62.3862-31.0879,96.0068-40.0303c33.7266-8.9707,64.0102-9.6318,75.6147,9.6465l0,0l0.1075,0.1816h0.0024 c6.856,11.5801-10.8535,26.0293-31.3179,42.7256c-29.6797,24.2158-65.2099,53.2031-39.2221,84.4023 c18.0473,21.667,67.6718,2.5948,125.7612-19.7324c69.9463-26.8847,152.1265-58.4668,206.7114-29.4316v0.7236 c-54.3276-29.1826-136.5283,2.4082-206.4721,29.291c-58.3291,22.42-108.1597,41.5713-126.5088,19.543 c-26.3853-31.6758,9.4087-60.8799,39.3095-85.2754c20.2427-16.5156,37.7598-30.8086,31.1714-41.9365h0.0005l-0.1064-0.1777l0,0 c-11.4165-18.9629-41.4224-18.254-74.878-9.3545c-33.5605,8.9248-70.5737,26.0996-95.8574,39.9716 c-0.9136,0.501-1.8232,1.0039-2.7305,1.5098C13.002,167.8987,6.8135,171.6887,0,176.0705V175.3176L0,175.3176z" fill="inherit"/><path d="M0,199.341c11.584-9.9629,22.7334-18.2207,28.4312-21.8076h0.0024c5.5728-3.4599,11.7637-7.0937,18.3819-10.7461 c24.3354-13.4297,54.5058-27.1738,81.1191-33.8047c26.7104-6.6572,49.8569-6.1435,60.0132,9.0118 c0.2632,0.3916,0.5176,0.7929,0.7602,1.2011l-0.0005,0.001c6.8599,11.499-8.2817,25.8994-25.7358,42.4961 c-25.4678,24.2207-55.9038,53.167-29.3276,84.042c17.9272,20.8545,65.52,1.0049,120.6206-21.9736 c68.7851-28.6856,149.2304-62.2276,198.8398-27.7315v0.7803c-49.3032-34.7246-129.791-1.1611-198.581,27.5264 c-55.3433,23.081-103.1441,43.0156-121.3819,21.7978c-26.9575-31.3154,3.711-60.4814,29.3745-84.8877 c17.2608-16.415,32.2373-30.6592,25.6265-41.7392h-0.001c-0.2417-0.4043-0.4892-0.7959-0.7426-1.1739 c-9.9673-14.874-32.8545-15.334-59.3003-8.7422c-26.5469,6.6133-56.6621,20.333-80.959,33.7432 c-6.6143,3.6494-12.7945,7.2744-18.3511,10.7266l0,0c-5.748,3.6162-17.0547,12-28.7485,22.0839L0,200.1799V199.341L0,199.341z" fill="inherit"/><path d="M0,227.2238c2.7862-3.0634,5.5889-6.0224,8.3555-8.8505c13.4463-13.7442,26.0459-24.3575,31.8008-28.4112l0.0029-0.0019 c9.2192-6.3809,20.0654-13.1612,31.6406-19.5938c21.3706-11.875,45.2281-22.5664,65.917-27.3867 c20.7803-4.8428,38.3887-3.7646,47.147,7.96c0.4853,0.6504,0.9458,1.3379,1.3779,2.0576h0.0005 c6.856,11.3994-5.707,25.7256-20.1494,42.1943c-21.2617,24.2442-46.6357,53.1778-19.437,83.7559 c17.8442,20.0976,63.6279-0.6162,115.98-24.3047c67.73-30.6465,146.415-66.2441,190.4687-25.0977v0.8995 c-43.6772-41.5167-122.4326-5.8926-190.1938,24.7656c-52.5913,23.7978-98.5835,44.6074-116.751,24.1465 c-27.5586-30.9844-1.9902-60.1407,19.4355-84.5704c14.2832-16.289,26.7081-30.456,20.0831-41.4746v-0.0009 c-0.4195-0.7002-0.8687-1.3682-1.3438-2.0059c-8.5718-11.4756-25.9346-12.5-46.4644-7.7158 c-20.6225,4.8056-44.4213,15.4717-65.746,27.3203c-11.5518,6.4199-22.379,13.1865-31.5821,19.5586l0,0 c-5.7353,4.0391-18.2949,14.623-31.7109,28.3359c-2.9248,2.9883-5.8882,6.124-8.8311,9.3731V227.2238L0,227.2238z" fill="inherit"/><path d="M0,258.5207c5.6851-7.6181,11.5293-14.7851,17.1836-21.3076c15.1739-17.4961,28.9937-30.3545,34.7002-34.8232h0.0005 c12.0845-9.3438,26.77-19.1944,41.9614-27.7041c17.5889-9.8536,35.8623-17.9151,51.5733-21.3243 c15.7959-3.4296,29.0205-2.1562,36.4116,6.7012c0.7036,0.8438,1.3535,1.7559,1.9482,2.7373 c6.8326,11.2774-3.146,25.4903-14.5864,41.7862c-17.0547,24.29-37.3896,53.2539-9.5268,83.5751 c17.8007,19.3975,61.9804-2.2919,111.7949-26.748c66.917-32.8545,143.9555-70.6611,181.644-20.8975v1.0664 c-37.2046-50.3701-114.3662-12.4941-181.3476,20.3897c-50.0523,24.5732-94.4424,46.3691-112.5786,26.6055 c-28.1988-30.6875-7.711-59.8692,9.4726-84.3438c11.3193-16.1201,21.1899-30.1826,14.5635-41.1191 c-0.5772-0.9532-1.209-1.8389-1.8921-2.6592c-7.209-8.6387-20.2046-9.8604-35.7598-6.4834 c-15.6406,3.3945-33.8515,11.4316-51.3906,21.2578c-15.1616,8.4941-29.8179,18.3232-41.8779,27.6475l0,0 c-5.6851,4.4531-19.4639,17.2763-34.6109,34.7392C11.8623,244.3313,5.8408,251.7287,0,259.5988V258.5207L0,258.5207z" fill="inherit"/><path d="M0,292.6379c8.5039-13.3506,17.4761-25.6435,25.9707-36.3691c16.9488-21.3994,32.0025-36.5684,37.6392-41.4492 c14.2954-12.3799,31.8389-25.1397,49.103-34.9073c13.6548-7.7256,27.1421-13.5849,38.7158-15.9101 c11.6524-2.3418,21.3843-1.1104,27.4473,5.3779c0.8936,0.957,1.7085,2.0303,2.4375,3.2236 c6.7891,11.1201-0.6133,25.168-9.0781,41.2334c-12.8413,24.3692-28.1489,53.418,0.4414,83.5381 c17.7973,18.75,60.5674-4.039,108.0356-29.331c22.9751-12.2413,47.0503-25.0713,69.9453-34.0645 c43.5259-17.0996,82.8355-20.3887,102.4468,20.2832v1.5274c-19.2055-41.5577-58.5586-38.3731-102.2012-21.2286 c-22.8789,8.9893-46.9267,21.8018-69.8769,34.0303c-47.7036,25.419-90.686,48.3193-108.8296,29.207 c-28.895-30.4414-13.4766-59.7011-0.5439-84.2441c8.3798-15.9033,15.7075-29.8115,9.0986-40.6348 c-0.7046-1.1533-1.4927-2.1914-2.3604-3.1191c-5.8852-6.2979-15.4043-7.4805-26.8295-5.1846 c-11.502,2.3125-24.9209,8.1436-38.5186,15.8369c-17.2222,9.7442-34.7275,22.4766-48.9956,34.833 c-5.6211,4.8682-20.6397,20.001-37.5586,41.3624C17.8203,267.5949,8.6538,280.1731,0,293.841V292.6379L0,292.6379z" fill="inherit"/><path d="M300.5801 221.0471L314.1929 250.9426 313.397 251.2766 299.7832 221.3811 300.5801 221.0471z" fill="inherit"/><path d="M302.9571 220.2531L316.4165 249.8127 316.0181 249.9817 302.5591 220.4192 302.9571 220.2531z" fill="inherit"/></g><g id="change1_1"><path d="M412.4385,228.7053c-1.4351-0.6553-1.7759-2.1777-0.7519-3.3447c0.997-1.1358,2.913-1.5342,4.3085-0.8975 c0.3672,0.169,0.6626,0.3955,0.8829,0.6523c0.0048,0.0088,0.0141,0.0118,0.0244,0.0098c0.0102-0.001,0.0176-0.0098,0.018-0.0185 l2.772-11.7344c0.0034-0.0137,0.0166-0.0205,0.0283-0.0186l0.6734,0.1475c0.0127,0.0019,0.0215,0.0156,0.0175,0.0293 l-3.0273,12.8232c-0.1362,0.5752-0.1953,0.9483-0.6387,1.4551C415.7471,228.9446,413.8325,229.342,412.4385,228.7053 L412.4385,228.7053z M412.5933,228.0393c1.1401,0.4599,2.8823,0.0898,3.7202-0.7735c0.833-0.8603,0.6494-1.6845-0.4775-2.1347 c-1.1348-0.4532-2.8819-0.0987-3.7212,0.7754C411.2827,226.7697,411.4654,227.5822,412.5933,228.0393L412.5933,228.0393z" fill="inherit"/></g><g id="change1_2"><path clip-rule="evenodd" d="M39.3697,232.4504c3.7724-1.0146,7.7124,1.0205,8.7988,4.541 c1.0869,3.5205-1.0923,7.2002-4.8652,8.2149c0.2783,1.2861,3.6689,1.8242,6.4648,1.0332 c8.854-2.5049,9.3047-10.0811,5.7524-16.4082l-6.0981-10.8662c-1.9316,1.0263-4.0591,1.8427-6.2769,2.4511 c-12.685,3.4815-25.8178-3.5293-30.4863-17.3418c-2.2646-6.707,0.1743-15.4619,2.5483-20.4297 c0.878-1.8398,5.8536-11.3935,7.0616-13.121c-3.4839-4.9209-7.1407-13.5948-8.0274-21.8995 c-0.7656-7.1728,1.9073-14.3867,5.2832-15.4677c1.3653-0.4405,4.918,2.0869,7.7959,5.8506 c2.7046,3.538,4.7627,8.2255,5.4214,10.9384c2.75,11.335,1.5664,19.6885-3.7514,28.377l5.9257,10.4248 c0.8863-0.4551,1.835-0.8262,2.8399-1.0977c8.8847-2.3916,17.4453,3.1475,20.123,11.8301 c2.6045,8.4443-0.7187,14.4873-6.4609,18.2988l5.7134,10.0498c5.3681,9.4405,3.1108,17.836-7.0357,20.7432 c-6.5864,1.8867-15.4863-0.6582-15.8589-9.3809c-0.0058-0.0976-0.0097-0.1933-0.0097-0.29l-0.0005-0.0215h0.0005 C34.2007,235.9778,36.2349,233.2922,39.3697,232.4504L39.3697,232.4504z M48.6128,217.5197l-11.727-20.8974 c-3.7627,2.2246-5.8247,6.5508-4.8355,9.8613c1.2334,4.1279,4.3584,6.5449,7.9815,6.7539 c0.9673,0.0557,0.9839,1.0156,0.0473,1.1162c-5.417,0.5694-11.0263-3.2724-12.6733-8.6142 c-1.7383-5.6348,0.6406-12.2471,5.688-15.875l-5.3653-9.5616c-5.4931,8.4688-11.6577,17.1534-8.4785,28.1417 c2.7632,9.5488,13.9307,14.1142,23.3579,11.581C44.8867,219.4113,46.9087,218.5754,48.6128,217.5197L48.6128,217.5197z M38.875,195.7092l11.6201,20.4434c3.608-3.0899,5.0362-7.5547,3.2422-13.333c-1.5468-4.9844-8.646-8.8116-14.2534-7.294 C39.2774,195.5803,39.0752,195.6447,38.875,195.7092L38.875,195.7092z M23.7666,168.4914 c-4.3608-6.2734-7.1518-24.0459,0.0552-25.8164c5.6255-1.3818,5.6626,7.9112,5.4653,10.5244 C28.8887,158.4592,25.6743,166.0129,23.7666,168.4914L23.7666,168.4914z" fill="inherit" fill-rule="evenodd"/></g><g id="change1_3"><path d="M91.9629,201.1018c-4.8921,0.8379-8.6401-2.4463-8.23-7.2139c0.3931-4.6455,4.5308-9.0156,9.2935-9.8301 c1.3188-0.2256,2.5518-0.1562,3.6431,0.1592l-15.1636-34.9307c-0.0166-0.038,0.0015-0.081,0.0415-0.0976l2.0068-0.8057 c0.0352-0.0156,0.0733-0.0019,0.0923,0.0283c6.772,10.1036,22.9214,11.3829,23.1616,23.0293 c0.0259,1.2081-0.0971,3.3086-0.7295,5.253c-0.0571,0.1758-0.2343,0.2851-0.4248,0.2568c-0.188-0.0283-0.3271-0.1797-0.3286-0.3623 c-0.0166-1.7295,0.1001-3.7559-0.1333-4.793c-0.4702-2.1005-1.0815-3.7314-1.9995-4.9316 c-3.9687-5.1934-10.6704-3.5732-14.2373-6.1963l11.188,25.7744c0.7397,1.7041,1.2935,2.7598,1.1172,4.834 C100.8614,195.9201,96.7305,200.2883,91.9629,201.1018L91.9629,201.1018z" fill="inherit"/></g><g id="change1_4"><path d="M107.52,120.801c-4.6298,1.1846-6.517,5.5215-4.145,9.5273c2.3067,3.9034,7.7671,6.1045,12.274,4.9502 c1.1884-0.3047,2.1962-0.8125,2.998-1.4687c0.0225-0.0166,0.0518-0.0195,0.0762-0.0088c0.0273,0.0078,0.0459,0.0332,0.0468,0.0635 l1.4986,36.3086c0.0024,0.039,0.0371,0.0703,0.0786,0.0693l2.0801-0.0801c0.041-0.001,0.0727-0.0342,0.0718-0.0752l-1.6377-39.6758 c-0.0748-1.7812-0.0367-2.9179-1.0669-4.6621C117.4854,121.8479,112.0293,119.6467,107.52,120.801L107.52,120.801z" fill="inherit"/></g><g id="change1_5"><path d="M142.0562,288.0285c-3.5152,0.5684-5.2241,3.6573-3.7554,6.7852c1.4297,3.0459,5.3184,5.0361,8.7407,4.4834 c0.9019-0.1475,1.6856-0.457,2.3262-0.8887c0.019-0.0117,0.0391-0.0127,0.0576-0.0029c0.0196,0.0078,0.0313,0.0273,0.0298,0.0488 l-1.4941,27.0059c-0.0015,0.0283,0.0219,0.0537,0.0522,0.0556l1.5479,0.0801c0.0307,0,0.0566-0.0215,0.0581-0.0517l1.6333-29.5088 c0.0727-1.3252,0.1821-2.1641-0.4551-3.5244C149.3653,289.466,145.4805,287.4719,142.0562,288.0285L142.0562,288.0285z" fill="inherit"/></g><g id="change1_6"><path d="M238.9805,292.0041c-3.0801,0.0235-5.0166-2.3574-4.2534-5.2304c0.7407-2.8008,3.7383-5.0586,6.7392-5.0821 c0.8306-0.0068,1.5762,0.1592,2.208,0.4619l-5.5083-22.8652c-0.0068-0.0264,0.0103-0.0508,0.0347-0.0557l0.7749-0.1728 l0.5391-0.1211l0.0493-0.0098c3.7612,4.1367,10.4282,5.628,10.2275,11.0821c-0.0215,0.6337-0.1513,1.7343-0.5415,2.7402 c-0.0351,0.0889-0.1328,0.1406-0.2314,0.1211c-0.0982-0.0195-0.1655-0.1035-0.1621-0.2012 c0.0439-0.9092,0.1689-1.9687,0.0761-2.5195c-0.1835-1.1162-0.455-1.9922-0.9023-2.6485c-1.9282-2.8398-5.498-2.1757-7.292-3.6543 l0.7568,3.1397l0.1231,0.5146l0.0107-0.0019c3.7627,4.1357,10.4292,5.6289,10.2286,11.0801 c-0.022,0.6347-0.1514,1.7373-0.5425,2.7412c-0.0347,0.0918-0.1324,0.1416-0.2305,0.1201 c-0.0986-0.0176-0.166-0.1016-0.1621-0.2012c0.0425-0.9062,0.1675-1.9658,0.0762-2.5185 c-0.1836-1.1162-0.4556-1.9922-0.9029-2.6465c-1.9277-2.8399-5.498-2.1787-7.2915-3.6553l2.4575,10.1943l0.2974,1.2432 c0.2691,1.1172,0.4946,1.8154,0.1636,3.0654C244.9785,289.7229,241.9834,291.9836,238.9805,292.0041L238.9805,292.0041z" fill="inherit"/></g><g id="change1_7"><path d="M234.9229,253.6184c-2.8496-0.0498-4.46-2.2774-3.5376-4.8906c0.8965-2.5469,3.8364-4.542,6.6113-4.4932 c0.7319,0.0117,1.3818,0.1689,1.9263,0.4346c0.0156,0.0058,0.0337,0.0058,0.0473-0.0039c0.0147-0.0088,0.0206-0.0274,0.0191-0.0411 l-1.9639-12.2851l-0.5903-3.6934l-0.2964-1.8515l-0.5034-3.1514l-0.086-0.542l23.6592-4.5479l0.0855,0.5401l0.5049,3.1533 l0.2949,1.8516l0.5918,3.6914l2.2724,14.2295c0.1641,1.0283,0.3203,1.6767-0.08,2.8125c-0.898,2.5449-3.8384,4.5439-6.6119,4.4912 c-2.8491-0.0498-4.4604-2.2754-3.5385-4.8906c0.896-2.5469,3.8374-4.542,6.6118-4.4942c0.7319,0.0127,1.3813,0.1699,1.9267,0.4346 c0.0137,0.0078,0.0323,0.0078,0.0464-0.002c0.0142-0.0107,0.0205-0.0283,0.0196-0.042l-1.9649-12.2851l-21.0264,4.043 l2.275,14.2304c0.1645,1.0274,0.3193,1.6729-0.0806,2.8096C240.6363,251.6711,237.6983,253.6701,234.9229,253.6184 L234.9229,253.6184z M259.7779,224.3508l-0.295-1.8535l-21.0268,4.043l0.2964,1.8535L259.7779,224.3508L259.7779,224.3508z" fill="inherit"/></g><g id="change1_8"><path d="M271.1494,228.2522c-2.226,0.915-2.8432,3.2138-1.3588,5.0517c1.4458,1.792,4.3393,2.5117,6.5048,1.6221 c0.5728-0.2334,1.0376-0.5576,1.3902-0.9404c0.0102-0.0108,0.0234-0.0166,0.0371-0.0108c0.0141,0.001,0.0254,0.0127,0.0283,0.0274 l3.4683,18.0449c0.0039,0.0195,0.0244,0.0322,0.0424,0.0293l1.0352-0.1856c0.021-0.0019,0.0337-0.0214,0.0298-0.04l-3.7891-19.7197 c-0.1694-0.8858-0.2368-1.4571-0.8823-2.2569C276.209,228.0852,273.3159,227.3625,271.1494,228.2522L271.1494,228.2522z" fill="inherit"/></g><g id="change1_9"><path d="M363.0567,243.0305c-1.9497,0.0791-3.2295-1.3867-2.8111-3.2207c0.4063-1.7871,2.2525-3.2793,4.1499-3.3565 c0.5259-0.0214,1.0005,0.0694,1.4092,0.2452l-4.0005-14.3536c-0.0039-0.0156,0.0054-0.0312,0.0215-0.0371l0.8233-0.2109 c0.0161-0.0039,0.0293,0.0029,0.0351,0.0156c2.0855,4.2715,8.2988,5.583,7.7603,10.126c-0.0572,0.4717-0.2193,1.2822-0.5694,2.0059 c-0.0332,0.0683-0.1084,0.1005-0.1811,0.081c-0.0713-0.0215-0.1153-0.0859-0.1065-0.1601 c0.0869-0.6729,0.2412-1.4551,0.2071-1.8702c-0.0679-0.8408-0.2159-1.5058-0.5093-2.0185 c-1.2617-2.2207-3.957-1.9278-5.2027-3.1279l2.9532,10.5908c0.1933,0.6982,0.3525,1.1386,0.1709,1.9345 C366.7998,241.4621,364.9546,242.9533,363.0567,243.0305L363.0567,243.0305z" fill="inherit"/></g><g id="change1_10"><path d="M379.3662,224.0774c-1.5195-0.3848-2.1421-1.8028-1.3715-3.1172c0.7509-1.2842,2.5385-2.0098,4.0161-1.6377 c0.3891,0.0996,0.7197,0.2646,0.9834,0.4775c0.0092,0.0059,0.0175,0.0078,0.0258,0.0059c0.0088-0.0049,0.0152-0.0127,0.0152-0.0235 l0.4477-11.8984c0-0.0127,0.0103-0.0225,0.0254-0.0225l0.6802,0.0245c0.0137,0,0.0249,0.0127,0.0249,0.0253l-0.4888,13.001 c-0.0205,0.584-0.0083,0.9561-0.3437,1.5293C382.6284,223.7229,380.8438,224.4504,379.3662,224.0774L379.3662,224.0774z" fill="inherit"/></g><g id="change1_11"><path d="M85.3296,290.7678c-4.2202,0.8555-7.5639-1.8936-7.3452-6.04c0.2085-4.0381,3.6709-7.9366,7.7788-8.7696 c1.1372-0.2304,2.2075-0.2021,3.1636,0.043l-14.1485-29.8906c-0.0161-0.0332-0.0014-0.0703,0.0323-0.085l1.7168-0.7539 c0.0307-0.0146,0.0639-0.0029,0.0815,0.0225c6.1607,8.582,20.2036,9.2627,20.7451,19.3574 c0.0557,1.0478,0.0093,2.8711-0.4824,4.5742c-0.0444,0.1553-0.1958,0.2549-0.3618,0.2334 c-0.1641-0.0176-0.2881-0.1465-0.2944-0.3047c-0.0655-1.5-0.0196-3.2578-0.2539-4.1533c-0.4678-1.8096-1.0435-3.2051-1.8746-4.2217 c-3.5908-4.3994-9.3549-2.8164-12.5239-4.9971l10.44,22.0547c0.6894,1.458,1.2006,2.3594,1.1069,4.1631 C92.8975,286.0354,89.439,289.9358,85.3296,290.7678L85.3296,290.7678z" fill="inherit"/></g><g id="change1_12"><path clip-rule="evenodd" d="M126.8633,185.4602c1.7651-0.0137,3.2056,1.3496,3.2212,3.0469 c0.0054,0.6269-0.1846,1.2119-0.5146,1.6992c-0.0123,0.0185-0.0108,0.041,0.0009,0.0595c0.0127,0.0186,0.0347,0.0245,0.0567,0.0205 c0.8174-0.166,1.5835-0.3945,2.2925-0.6445c1.2392-0.4336,3.3359-1.293,3.9404-2.5049c0.0137-0.0254,0.0454-0.0371,0.0727-0.0263 c0.4024,0.1738,0.8623,0.3711,1.3965,0.6015c0.0293,0.0127,0.0405,0.044,0.0298,0.0703l-8.5762,18.4707 c-0.0127,0.0254-0.0454,0.0372-0.0722,0.0284l-1.398-0.6026c-0.0273-0.0136-0.0395-0.0439-0.0273-0.0703l7.4155-15.9726 c0.0107-0.0206,0.0059-0.0479-0.0132-0.0625c-0.0185-0.0147-0.0439-0.0176-0.0644-0.0059 c-0.6997,0.4023-1.4781,0.7666-2.3306,1.0645c-1.5176,0.5361-3.2666,0.9746-5.2295,0.9707c-0.001,0-0.001,0-0.0019,0 l-0.1436,0.0039c-1.7651,0.0156-3.2046-1.3487-3.2192-3.0479C123.6826,186.8615,125.1006,185.4738,126.8633,185.4602 L126.8633,185.4602z" fill="inherit" fill-rule="evenodd"/></g><g id="change1_13"><path d="M91.2422,232.4279c-3.6401-2.1689-4.0849-6.3505-0.9761-9.1835c3.0269-2.7647,8.2901-3.2793,11.834-1.167 c0.9341,0.5556,1.6597,1.2422,2.168,2.0029c0.0151,0.0225,0.0371,0.0312,0.063,0.0283c0.0259,0,0.0473-0.0176,0.0561-0.042 L115.46,193.385c0.0127-0.0322,0.0503-0.0518,0.085-0.0401l1.7578,0.5879c0.0361,0.0118,0.0542,0.0489,0.041,0.083 l-12.0996,33.5274c-0.542,1.5039-0.8179,2.4863-2.1685,3.7197C100.0484,234.0237,94.7886,234.5442,91.2422,232.4279 L91.2422,232.4279z" fill="inherit"/></g><g id="change1_14"><path d="M128.9615,109.9299c-3.9283-2.7021-4.8765-7.3174-2.085-10.1357c2.7183-2.7491,7.958-2.834,11.7827-0.2032 c1.0098,0.6934,1.8213,1.5137,2.4248,2.3907c0.0176,0.0224,0.0425,0.04,0.0679,0.038c0.0259-0.0029,0.0444-0.0166,0.0493-0.041 l4.3789-19.0664l1.3169-5.7295l0.6597-2.875l1.1235-4.8925l0.1929-0.8389l35.497,15.4726l-0.1933,0.8389l-1.1235,4.8926 l-0.6602,2.874l-1.3164,5.7324l-5.0713,22.083c-0.3657,1.5957-0.5249,2.6455-1.7388,3.8721 c-2.7197,2.7461-7.9585,2.8359-11.7827,0.2002c-3.9302-2.7051-4.8794-7.3184-2.0864-10.1377 c2.7183-2.7461,7.9575-2.833,11.7837-0.2012c1.0093,0.6963,1.8208,1.5137,2.4238,2.3897c0.0181,0.0234,0.0425,0.04,0.0679,0.04 c0.0259-0.0019,0.0454-0.0176,0.0508-0.041l4.3779-19.0674l-31.5459-13.7509l-5.0718,22.0839 c-0.3662,1.5957-0.5259,2.6455-1.7388,3.8741C138.0254,112.4768,132.7857,112.5656,128.9615,109.9299L128.9615,109.9299z M180.419,91.7942l0.6596-2.8741l-31.5478-13.7509l-0.6587,2.873L180.419,91.7942L180.419,91.7942z" fill="inherit"/></g><g id="change1_15"><path d="M81.9097,99.9377c-5.2031-0.3447-8.1714-4.8818-6.519-9.9687c1.6059-4.9561,6.9536-8.6534,12.0195-8.3184 c1.3369,0.0879,2.5254,0.4492,3.5244,1.0234c0.0283,0.0147,0.0591,0.0127,0.0845-0.0058c0.0273-0.0147,0.041-0.0479,0.0356-0.082 l-6.3769-41.752c-0.0069-0.0459,0.0234-0.0889,0.0678-0.0947l2.2403-0.3604c0.0429-0.0097,0.0849,0.0215,0.0918,0.0664 l6.9677,45.627c0.3135,2.0459,0.6031,3.3359-0.1142,5.5508C92.3228,96.5754,86.979,100.2737,81.9097,99.9377L81.9097,99.9377z" fill="inherit"/></g><g id="change1_16"><path d="M396.062,208.2697c-1.3994-0.2744-2.0385-1.5332-1.4057-2.7666c0.6152-1.2011,2.1992-1.9453,3.563-1.6787 c0.3774,0.0733,0.6992,0.2188,0.955,0.4141l-0.2119-10.877c0-0.0107,0.0083-0.0205,0.0201-0.0205l0.3701-0.0078l0.2558-0.0039 h0.024c1.2915,2.2236,4.1655,3.5156,3.5288,5.9717c-0.0738,0.2852-0.2432,0.7715-0.5205,1.1904 c-0.024,0.0371-0.0738,0.0508-0.1148,0.0323c-0.0444-0.0166-0.0669-0.0606-0.0542-0.1036c0.1099-0.4091,0.272-0.8759,0.2847-1.1367 c0.0278-0.5224-0.0064-0.9443-0.1446-1.2822c-0.5898-1.4678-2.2729-1.4981-2.9404-2.332l0.0303,1.4921l0.0058,0.2452h0.004 c1.2915,2.2236,4.1645,3.5166,3.5288,5.9697c-0.0728,0.2881-0.2417,0.7734-0.5186,1.1914 c-0.0259,0.0381-0.0757,0.0527-0.1172,0.0352c-0.0439-0.0186-0.0654-0.0625-0.0537-0.1055c0.1104-0.4082,0.272-0.877,0.2861-1.1367 c0.0279-0.5225-0.0068-0.9444-0.1445-1.2813c-0.5908-1.4687-2.2754-1.499-2.9399-2.333l0.0952,4.8477l0.0098,0.5918 c0.0122,0.5293,0.0429,0.8681-0.2315,1.4052C399.0083,207.7903,397.4243,208.5373,396.062,208.2697L396.062,208.2697z" fill="inherit"/></g><g id="change1_17"><path d="M183.4209,334.1321c-2.5337,0.25-4.5468-0.9385-5.3437-2.8565l-1.7349,0.5586c-0.0249,0.0068-0.0508-0.0059-0.0591-0.0283 l-0.4111-1.1865c-0.0078-0.0215,0.0044-0.0489,0.0293-0.0567l1.8403-0.5889c-0.0576-0.496-0.0459-1.0224,0.0435-1.5683 c0.5517-3.3858,3.8335-6.3789,7.376-6.7276c0.9795-0.0976,1.8803,0.0176,2.663,0.3067l-9.164-26.4297 c-0.0088-0.0283,0.0058-0.0605,0.0351-0.0693l1.5186-0.4893c0.0269-0.0078,0.0537,0.0059,0.0674,0.0274 c4.4009,7.7705,16.1826,9.5488,15.7051,18.1103c-0.0494,0.8887-0.2593,2.4229-0.8316,3.8184 c-0.0527,0.1259-0.189,0.1963-0.3266,0.166c-0.1373-0.0293-0.2291-0.1485-0.2198-0.2832c0.085-1.2715,0.2842-2.751,0.1714-3.5254 c-0.2285-1.5654-0.5854-2.794-1.1904-3.7236c-2.6211-4.0157-7.6319-3.1797-10.1006-5.2891l6.7617,19.5 c0.2564,0.7402,0.4805,1.3223,0.5777,1.9687l1.8627-0.5986c0.0235-0.0068,0.0513,0.0059,0.0591,0.0283l0.4107,1.1875 c0.0083,0.0225-0.0054,0.0489-0.0293,0.0557l-2.3003,0.7402l-0.0332,0.2227C190.2442,330.7922,186.9658,333.7844,183.4209,334.1321 L183.4209,334.1321z" fill="inherit"/></g><g id="change1_18"><path clip-rule="evenodd" d="M292.1543,238.4416c0.7803-0.5664,1.8892-0.417,2.4776,0.333 c0.2177,0.2783,0.3325,0.5996,0.3545,0.9209c0,0.0098,0.0083,0.0215,0.0195,0.0264c0.0127,0.0029,0.0249,0,0.0332-0.0117 c0.3061-0.333,0.5684-0.6778,0.7983-1.0137c0.4029-0.5859,1.042-1.6348,0.8955-2.3652c-0.0034-0.0176,0.0069-0.0323,0.023-0.0362 c0.2392-0.0488,0.5122-0.1084,0.8276-0.1757c0.0176-0.004,0.0337,0.0058,0.0371,0.0224l2.5181,10.9453 c0.0029,0.0147-0.0078,0.0313-0.0244,0.0342l-0.8272,0.1768c-0.0161,0.0029-0.0327-0.0078-0.0351-0.0215l-2.1773-9.4658 c-0.0039-0.0137-0.0146-0.0225-0.0288-0.0245c-0.0136-0.0009-0.0254,0.0059-0.0307,0.0176 c-0.1739,0.4024-0.3936,0.8125-0.6719,1.2158c-0.4922,0.7198-1.1196,1.4717-1.9946,2.0928l0,0l-0.0621,0.0488 c-0.7802,0.5665-1.8906,0.417-2.4785-0.3339C291.2188,240.0764,291.3745,239.008,292.1543,238.4416L292.1543,238.4416z" fill="inherit" fill-rule="evenodd"/></g><g id="change1_19"><path clip-rule="evenodd" d="M419.2632,192.8772c0.6929-0.1621,1.3901,0.2451,1.5571,0.9131 c0.0625,0.247,0.0445,0.4941-0.0385,0.7158c-0.0049,0.0078-0.0015,0.0166,0.0039,0.0215c0.0083,0.0068,0.0161,0.0078,0.0249,0.0048 c0.3061-0.1386,0.5859-0.2949,0.8403-0.458c0.4478-0.2793,1.1904-0.8037,1.312-1.333c0.0034-0.0117,0.0152-0.0195,0.0254-0.0185 c0.1758,0.0351,0.375,0.0703,0.6084,0.1142c0.0117,0.001,0.02,0.0127,0.0186,0.0254l-1.6133,8.0283 c-0.002,0.0108-0.0137,0.0176-0.0269,0.0166l-0.6059-0.1132c-0.0127-0.002-0.0215-0.0137-0.0181-0.0254l1.3945-6.9424 c0.002-0.0088-0.0034-0.0186-0.0112-0.0244c-0.0093-0.003-0.0186-0.002-0.0264,0.0058c-0.2373,0.2198-0.5088,0.4307-0.8149,0.6241 c-0.5474,0.3457-1.1934,0.6738-1.9668,0.8447l0,0l-0.0557,0.0137c-0.6938,0.163-1.3916-0.2471-1.5571-0.9141 C418.1441,193.7102,418.5703,193.0373,419.2632,192.8772L419.2632,192.8772z" fill="inherit" fill-rule="evenodd"/></g><g id="change1_20"><path d="M439.481,223.4026c-0.7046-0.4717-0.7466-1.3125-0.0933-1.8477c0.6372-0.5225,1.6939-0.5723,2.3804-0.1123 c0.1802,0.1201,0.3179,0.2656,0.4111,0.4219c0.003,0.0049,0.0083,0.0068,0.0117,0.0068c0.0064,0,0.0113-0.0029,0.0127-0.0078 l2.5552-6.0254c0.0029-0.0068,0.0117-0.0098,0.0176-0.0068l0.3457,0.1347c0.0063,0.002,0.0103,0.0118,0.0068,0.0176l-2.7934,6.585 c-0.1236,0.2949-0.1895,0.4883-0.4741,0.7217C441.2256,223.8127,440.1675,223.8635,439.481,223.4026L439.481,223.4026z" fill="inherit"/></g><g id="change1_21"><path d="M436.6299,199.6184c-1.1484-0.1807-2.0117,0.6015-1.8979,1.7168c0.1103,1.0849,1.0947,2.0908,2.2124,2.2656 c0.2954,0.0459,0.5713,0.0273,0.8154-0.041c0.0063-0.001,0.0142,0,0.0195,0.0058c0.0034,0.0049,0.0054,0.0118,0.003,0.0176 l-3.399,8.1934c-0.0029,0.0097,0.0005,0.0205,0.0083,0.0234l0.4717,0.1817c0.0098,0.0029,0.0191-0.002,0.0234-0.0118l3.7134-8.9531 c0.167-0.4004,0.292-0.6504,0.2442-1.1338C438.7325,200.799,437.7481,199.7903,436.6299,199.6184L436.6299,199.6184z" fill="inherit"/></g><g id="change1_22"><path d="M196.4922,286.1594c-3.5596-0.3897-5.4492-3.3994-4.1494-6.6123c1.2632-3.1338,5.0527-5.334,8.5186-4.9551 c0.9599,0.1045,1.7963,0.3955,2.4819,0.8291l-3.0269-27.1308c-0.0039-0.0303,0.0186-0.0567,0.0498-0.0596l1.5572-0.1611 c0.0278-0.004,0.0522,0.0136,0.0581,0.038c2.5239,8.3203,13.4111,12.3936,11.0932,20.4893 c-0.2402,0.8408-0.7734,2.2666-1.624,3.4853c-0.0771,0.1094-0.2236,0.1514-0.3476,0.0928 c-0.125-0.0556-0.1885-0.1885-0.1509-0.3154c0.3579-1.1973,0.8706-2.5733,0.9311-3.3369c0.1221-1.5449,0.0479-2.791-0.331-3.8028 c-1.6353-4.373-6.6109-4.5781-8.5161-7.0947l2.2343,20.0205c0.1475,1.3213,0.3052,2.1602-0.2592,3.5606 C203.7461,284.3362,199.9585,286.5393,196.4922,286.1594L196.4922,286.1594z" fill="inherit"/></g><g id="change1_23"><path d="M433.5567,184.6252c-0.5034-0.3369-0.8277-0.8252-0.855-1.3818c-0.0283-0.5547,0.25-1.0684,0.7173-1.4502 c0.9907-0.8076,2.6465-0.8828,3.7114-0.166c0.3896,0.2636,0.6489,0.5947,0.772,0.9531l3.7514-8.8477l0.4859-1.1455l0.0659-0.1523 l7.0928,5.9043l-0.3213,0.7539l-0.23,0.5449l-4.9316,11.625c-0.0987,0.3379-0.3179,0.6631-0.6553,0.9375 c-0.9888,0.8067-2.645,0.8809-3.709,0.167c-0.5034-0.3389-0.8291-0.8291-0.8545-1.3818c-0.0278-0.5557,0.249-1.0703,0.7168-1.4512 c0.9912-0.8086,2.6465-0.8838,3.7129-0.168c0.3892,0.2637,0.6475,0.5977,0.7705,0.9541l4.6406-10.9414l-6.4736-5.3887 l-4.0415,9.5323c-0.0991,0.3388-0.3193,0.6631-0.6548,0.9375C436.2764,185.2688,434.6206,185.343,433.5567,184.6252 L433.5567,184.6252z" fill="inherit"/></g><g id="change1_24"><path d="M315.2974,223.1047c-1.9692-0.5029-2.9932-2.2773-2.2485-3.8994c0.7236-1.5811,2.8398-2.4492,4.7578-1.9619 c0.5058,0.1289,0.9472,0.3408,1.3139,0.6113c0.0103,0.0078,0.023,0.0098,0.0332,0.0068c0.0103-0.0058,0.0152-0.0156,0.0152-0.0273 l-1.2476-12.5625l-0.2207-2.2207l-0.0376-0.3818l16.5537,0.8027l15.6328,0.7578l0.0386,0.3789l0.2197,2.2236l1.3833,13.9327 c0.0718,0.7246,0.1529,1.1884-0.1709,1.8935c-0.7231,1.5791-2.8374,2.4522-4.7558,1.961c-1.9717-0.503-2.9937-2.2774-2.25-3.8995 c0.7226-1.58,2.8403-2.4511,4.7578-1.9609c0.5059,0.1279,0.9477,0.3408,1.3154,0.6104c0.0083,0.0078,0.0225,0.0097,0.0318,0.0058 c0.0097-0.0049,0.0161-0.0156,0.0141-0.0244l-1.2466-12.5645l-14.7124-0.7128l1.3833,13.9336 c0.0738,0.7246,0.1529,1.1875-0.1689,1.8935c-0.7251,1.5791-2.8413,2.4522-4.7578,1.9629 c-1.9702-0.5039-2.9927-2.2783-2.2505-3.9014c0.7256-1.5791,2.8408-2.4511,4.7588-1.9619 c0.5054,0.1299,0.9492,0.3418,1.3144,0.6123c0.0103,0.0059,0.0225,0.0098,0.0323,0.0059c0.0107-0.0049,0.0161-0.0156,0.0151-0.0244 l-1.2466-12.5645l-14.7114-0.7139l1.3818,13.9336c0.0718,0.7237,0.1533,1.1885-0.1709,1.8936 C319.3316,222.7229,317.2149,223.594,315.2974,223.1047L315.2974,223.1047z" fill="inherit"/></g><g id="change1_25"><path d="M364.0991,193.9192c-1.4306,0.4414-1.9501,1.831-1.1376,3.0488c0.7871,1.1894,2.5351,1.793,3.9301,1.3623 c0.3677-0.1143,0.6753-0.2891,0.9156-0.5059c0.0068-0.0058,0.0156-0.0088,0.0234-0.0048c0.0088,0.0019,0.0151,0.0097,0.0161,0.0175 l1.0781,11.3623c0.002,0.0118,0.0147,0.0205,0.0254,0.0205l0.6504-0.0586c0.0142-0.0009,0.0239-0.0117,0.022-0.0244l-1.1787-12.414 c-0.0537-0.5567-0.0601-0.9151-0.4121-1.4444C367.2417,194.091,365.4951,193.4846,364.0991,193.9192L364.0991,193.9192z M364.1612,194.5637c1.1298-0.2969,2.7207,0.2598,3.395,1.1748c0.6714,0.9072,0.3911,1.6582-0.7251,1.9453 c-1.127,0.29-2.7202-0.2539-3.3965-1.1748C362.7657,195.5969,363.0425,194.8547,364.1612,194.5637L364.1612,194.5637z" fill="inherit"/></g><g id="change1_26"><path d="M42.1602,134.7424c0.9746,2.3066,1.9883,4.6885,3.0571,7.1299c0.0064,0.0146,0.023,0.0117,0.0313,0.0137 c0.0083,0.0039,0.0005,0.0127,0.0156,0.0058c0.9624-0.3808,1.8974-0.789,2.8188-1.1474c0,0,0.0352-0.0733,0.0274-0.0899 c-0.5928-1.165-1.1299-2.3896-1.6519-3.6172c-0.5088-1.2021-1.0254-2.3877-1.5844-3.4863c-0.0083-0.0147,0.0073-0.04,0.0219-0.04 c0.6646,0.0312,1.3892-0.0254,2.022-0.0079c0.019,0.002,0.0317,0.0137,0.0317,0.0137c0.9414,2.0947,1.94,4.2178,2.9449,6.4483 c0,0,0.0087,0.0009,0.0161,0.0068c0.0073,0.0019,0.0146,0.0029,0.0146,0.0029c0.5425-0.2676,1.0166-0.4043,1.4907-0.6162 c0.5005-0.2246,0.9766-0.4375,1.4439-0.6396c0,0,0.0088,0.0029,0.0146,0.0058c0.0069,0.0039,0.0083-0.0058,0.0162,0.0059 c0.3979,0.8437,0.7675,1.7012,1.2036,2.5107c0.0073,0.0137-0.0078,0.0332-0.0225,0.0401c-0.457,0.1982-0.9053,0.4189-1.3955,0.6591 c-0.4917,0.2422-0.9751,0.4366-1.4829,0.67c0,0,0.0102-0.0059,0.0171,0.0068c0.5815,1.2168,1.1284,2.4805,1.7129,3.7119 c0.6093,1.2822,1.2197,2.5391,1.811,3.9131c0.0059,0.0156,0.0078,0.0029,0.0142,0.0049c0.0083,0.0049,0.0166,0.0068,0.0166,0.0068 c0.5029-0.3349,0.9624-0.6445,1.4531-0.9804c0.4565-0.3106,0.9053-0.5655,1.375-0.9161c0,0,0.0078,0.003,0.0161,0.0069 c0.0078,0.0019,0.0088-0.0088,0.0147,0.0068c0.4453,0.9658,0.9047,1.8682,1.3334,2.8779c0.0079,0.0176,0.0162,0.0079,0.0162,0.0079 c-0.4537,0.3583-0.9078,0.6601-1.3706,1.0175c-0.4947,0.3828-0.9849,0.7129-1.4463,1.085c-0.0723,0.0566-0.043,0.0801-0.043,0.0801 c1.1787,2.6757,2.3896,5.3769,3.6885,8.1533c0.0053,0.0137,0.0146-0.0059,0,0c-0.6328,0.2734-1.3423,0.6904-1.9912,0.957 c-0.0147,0.0059-0.0323-0.0156-0.0323-0.0156c-1.1938-2.5908-2.3232-5.251-3.4414-7.7529c0,0-0.0083-0.003-0.0156-0.0059 c-0.0083-0.0049-0.0146-0.0068-0.0146-0.0068c-0.8746,0.6738-1.7832,1.3379-2.7637,2.0664c0,0-0.0342,0.0742-0.0259,0.0879 c0.7017,1.5254,1.3897,3.1084,2.0679,4.7431c0.6968,1.6787,1.4155,3.333,2.1367,5.084l0,0 c-0.7773,0.4199-1.5361,0.7949-2.3301,1.2051c0,0-0.0254,0.0019-0.0337-0.0137c-1.3803-3.2138-2.7168-6.3808-3.9433-9.4219 c-0.0352-0.0839,0.0439-0.1376,0.0112-0.0947c-0.0347,0.043-0.0576,0.0752-0.0576,0.0752 c-1.1148,0.8203-2.2696,1.6738-3.459,2.5576c0,0-0.0078-0.0019-0.0151-0.0058c-0.0083-0.0039-0.0171-0.0078-0.0171-0.0078 c-0.5249-1.2618-0.9839-2.544-1.4732-3.7901l0,0c1.2202-0.8193,2.4014-1.6113,3.524-2.3779l0.0239-0.041 c-0.6294-1.5479-1.2197-3.083-1.8374-4.5684c-0.5938-1.4355-1.1533-2.9414-1.7324-4.3642c0,0-0.0069-0.003-0.0147-0.0088 c-0.0083-0.002-0.0146-0.0039-0.0146-0.0039c-1.1363,0.5615-2.3243,1.1513-3.5489,1.7236c0,0-0.0078-0.0049-0.0156-0.0068 c-0.0083-0.0039-0.0161-0.0059-0.0161-0.0059c-0.4204-1.1084-0.8462-2.1699-1.2271-3.3105l0,0 c1.2173-0.5245,2.3887-1.0303,3.5152-1.4883c0.0151-0.0069,0.0493-0.0674,0.0425-0.0821c-0.606-1.3193-1.1753-2.6718-1.7281-3.9951 c-0.5591-1.3359-1.0991-2.6006-1.6006-3.9287c0,0-0.0014,0.0039,0.0162,0.0039c0.7544,0.0225,1.5673-0.0508,2.3388-0.0693 C42.145,134.7278,42.1602,134.7424,42.1602,134.7424L42.1602,134.7424z M52.898,151.5071 c-0.5864-1.4209-1.1748-2.8067-1.7666-4.1407c-0.5879-1.3242-1.1641-2.6006-1.7432-3.873c0,0-0.0078-0.0039-0.0156-0.0078 c-0.0083-0.0039,0,0,0,0c-0.9175,0.459-1.8667,0.9043-2.832,1.3418l0,0c0.5703,1.3681,1.1674,2.7539,1.7412,4.1699 c0.58,1.4297,1.185,2.9131,1.8051,4.4062l0,0l0.0162,0.0069c0.9917-0.6748,1.9311-1.3233,2.812-1.8965 C52.9151,151.5139,52.9033,151.5227,52.898,151.5071L52.898,151.5071z" fill="inherit"/></g><g id="change1_27"><path d="M96.3584,321.0461c-1.1621-0.6465-1.9638-1.6484-2.1318-2.8515c-0.1685-1.2032,0.333-2.3741,1.2768-3.2911 c1.9991-1.9375,5.5884-2.4013,8.0459-1.0371c0.9024,0.503,1.5298,1.1817,1.8672,1.9356l6.4322-19.9405l0.832-2.5839l0.1103-0.3418 l16.5987,11.5615l-0.5479,1.7002l-0.3955,1.2256l-8.4507,26.2031c-0.1528,0.7539-0.5625,1.5-1.2417,2.1582 c-1.998,1.9404-5.5879,2.4023-8.0454,1.0371c-1.1616-0.6445-1.9643-1.6465-2.1328-2.8516c-0.166-1.2041,0.3345-2.373,1.2778-3.289 c1.9991-1.9395,5.5879-2.4033,8.0474-1.0381c0.9009,0.5019,1.5274,1.1816,1.8662,1.9346l7.9536-24.6612l-15.1474-10.5488 l-6.9278,21.4844c-0.1528,0.7539-0.5634,1.5-1.2412,2.1572C102.4063,321.9485,98.8159,322.4104,96.3584,321.0461L96.3584,321.0461z" fill="inherit"/></g><g id="change1_28"><path d="M109.0176,57.1584c-4.8935-2.0722-6.3467-7.5146-3.1904-11.956c3.0722-4.333,9.3511-6.1778,14.1167-4.1602 c1.3198,0.5586,2.3882,1.3565,3.1855,2.3106l6.7783-43.2813c0.0074-0.0459,0.0498-0.0781,0.0938-0.0703l2.2783,0.3945 c0.041,0.0069,0.0674,0.041,0.0669,0.084c0.188,13.9287,13.9815,24.7344,7.3838,36.3184c-0.6821,1.2011-2.021,3.1914-3.728,4.7265 c-0.1543,0.1387-0.3784,0.1436-0.5323,0.003c-0.1547-0.1387-0.1899-0.3711-0.083-0.5489c0.9952-1.7099,2.2862-3.6308,2.6822-4.79 c0.8047-2.3399,1.208-4.3027,1.0849-6.0254c-0.5381-7.4473-7.5185-9.8203-9.1963-14.5049l-5.0009,31.9336 c-0.3306,2.1104-0.4493,3.4746-1.8208,5.4082C120.062,57.3274,113.7866,59.176,109.0176,57.1584L109.0176,57.1584z" fill="inherit"/></g></g></svg>