<?xml version="1.0" encoding="UTF-8" standalone="no"?><svg xmlns="http://www.w3.org/2000/svg" xmlns:xlink="http://www.w3.org/1999/xlink" fill="#000000" height="191.9" preserveAspectRatio="xMidYMid meet" version="1" viewBox="-91.1 189.4 916.5 191.9" width="916.5" zoomAndPan="magnify"><g id="change1_1"><path d="M786.382,306.382c13.057,23.375,26.087,46.209,39.068,68.513c-44.936,6.398-90.556,6.398-135.488,0 c0-48.303,0-96.601,0-144.898c44.933,6.388,90.553,6.388,135.488,0C812.469,255.99,799.439,281.453,786.382,306.382z M-91.059,229.997c12.978,25.993,26.009,51.456,39.067,76.385c-13.058,23.375-26.089,46.209-39.067,68.513 c44.935,6.398,90.55,6.398,135.485,0c0-48.303,0-96.601,0-144.898C-0.509,236.385-46.124,236.385-91.059,229.997z" fill="#d35150"/></g><g id="change2_1"><path d="M744.303,280.333v61.234l-54.341,33.327v-94.562H744.303z M-9.913,341.568l54.338,33.327v-94.562H-9.913 V341.568z" fill="#ff66c4"/></g><g id="change3_1"><path d="M744.303,189.42c0,50.713,0,101.432,0,152.148c-249.852,39.57-504.368,39.57-754.216,0 c0-50.716,0-101.435,0-152.148C239.935,228.99,494.452,228.99,744.303,189.42z" fill="#ff66c4"/></g></svg>