<?xml version="1.0" encoding="UTF-8"?>
<svg id="Layer_1" data-name="Layer 1" xmlns="http://www.w3.org/2000/svg" version="1.1" viewBox="0 0 200 200">
  <defs>
    <style>
      .cls-1 {
        fill: #ffffff;
        stroke-width: 0px;
      }
    </style>
  </defs>
  <path class="cls-1" d="M190.19,81.32c-5.83-5.98-13.65-9.34-22-9.45-8.36-.11-16.25,3.05-22.24,8.88l-25.86,25.21,11.56,11.86,25.86-25.21c5.81-5.66,15.15-5.54,20.81.27,5.66,5.81,5.54,15.15-.27,20.81l-19.48,18.98c-7.78,7.58-20.26,7.42-27.84-.36l-4.34-4.46-14.02-14.39-4.73-4.85-1.72-1.76-50.82-52.15c-12.15-12.46-32.17-12.73-44.63-.58-12.46,12.15-12.72,32.17-.58,44.63l43.53,44.67c11.68,11.99,29.7,14.15,43.66,6.34,2.71-1.52,5.27-3.41,7.6-5.68l7.38-7.19,6.81,6.98c11.68,11.99,29.7,14.15,43.66,6.34,2.71-1.52,5.27-3.41,7.6-5.68l19.48-18.98c12.35-12.04,12.61-31.89.57-44.24ZM93.12,132.23c-7.78,7.58-20.26,7.42-27.84-.36l-43.53-44.67c-5.77-5.92-5.65-15.44.27-21.21.96-.94,2.02-1.72,3.15-2.35,5.77-3.23,13.23-2.33,18.06,2.62l57.27,58.77-7.38,7.19Z"/>
</svg>